<?xml version="1.0" encoding="UTF-8"?>
<svg width="40px" height="40px" viewBox="0 0 40 40" version="1.1" xmlns="http://www.w3.org/2000/svg" xmlns:xlink="http://www.w3.org/1999/xlink">
    <!-- Generator: Sketch 59.1 (86144) - https://sketch.com -->
    <title>Transportation/Elevator/Generic</title>
    <desc>Created with Sketch.</desc>
    <defs>
        <path d="M27.5201701,8 C30.5416785,8 33,10.3269621 33,13.1848163 L33,13.1848163 L33,31.8151837 C33,34.6730379 30.5416785,37 27.5201701,37 L27.5201701,37 L11.4798299,37 C8.45832152,37 6,34.6730379 6,31.8151837 L6,31.8151837 L6,13.1848163 C6,10.3269621 8.45832152,8 11.4798299,8 L11.4798299,8 Z M27.200921,10.8125 L11.80012,10.8125 C10.1647439,10.8125 8.83333333,12.0551211 8.83333333,13.582211 L8.83333333,13.582211 L8.83333333,31.417789 C8.83333333,32.9448789 10.1647439,34.1875 11.80012,34.1875 L11.80012,34.1875 L27.200921,34.1875 C28.8362971,34.1875 30.1666667,32.9448789 30.1666667,31.417789 L30.1666667,31.417789 L30.1666667,13.582211 C30.1666667,12.0551211 28.8362971,10.8125 27.200921,10.8125 L27.200921,10.8125 Z M16,18 C17.1045695,18 18,18.8954305 18,20 L18,24 C18,24.7398375 17.5982846,25.3858493 17.0010775,25.7318119 L17,31 C17,31.5522847 16.5522847,32 16,32 C15.4477153,32 15,31.5522847 15,31 C15,31.5522847 14.5522847,32 14,32 C13.4477153,32 13,31.5522847 13,31 L12.9999275,25.7323937 C12.4021661,25.3865739 12,24.7402524 12,24 L12,20 C12,18.8954305 12.8954305,18 14,18 L16,18 Z M25,18 C26.1045695,18 27,18.8954305 27,20 L27,24 C27,24.7398375 26.5982846,25.3858493 26.0010775,25.7318119 L26,31 C26,31.5522847 25.5522847,32 25,32 C24.4477153,32 24,31.5522847 24,31 C24,31.5522847 23.5522847,32 23,32 C22.4477153,32 22,31.5522847 22,31 L21.9999275,25.7323937 C21.4021661,25.3865739 21,24.7402524 21,24 L21,20 C21,18.8954305 21.8954305,18 23,18 L25,18 Z M37.5,23 C38.3284271,23 39,23.6715729 39,24.5 C39,25.3284271 38.3284271,26 37.5,26 C36.6715729,26 36,25.3284271 36,24.5 C36,23.6715729 36.6715729,23 37.5,23 Z M37.5,18 C38.3284271,18 39,18.6715729 39,19.5 C39,20.3284271 38.3284271,21 37.5,21 C36.6715729,21 36,20.3284271 36,19.5 C36,18.6715729 36.6715729,18 37.5,18 Z M15,13 C16.1044578,13 17,13.896 17,15 C17,16.104 16.1044578,17 15,17 C13.8955422,17 13,16.104 13,15 C13,13.896 13.8955422,13 15,13 Z M24,13 C25.1044578,13 26,13.896 26,15 C26,16.104 25.1044578,17 24,17 C22.8955422,17 22,16.104 22,15 C22,13.896 22.8955422,13 24,13 Z M11.6967069,0.598434554 C12.4735759,-0.199478185 13.7331293,-0.199478185 14.5099982,0.598434554 L14.5099982,0.598434554 L17.6709173,3.84497646 C18.1096942,4.29563899 18.1096942,5.02630731 17.6709173,5.47696983 L17.6709173,5.47696983 L17.5708693,5.56827413 C17.1300956,5.92484117 16.4893532,5.89330409 16.0840497,5.47483461 L16.0840497,5.47483461 L13.1033526,2.39731145 L9.88774689,5.67010583 C9.45417678,6.11138687 8.7548893,6.10975307 8.32327834,5.66645065 C7.89224055,5.22373692 7.89224055,4.50595616 8.32327834,4.06324243 L8.32327834,4.06324243 Z M28.0771488,0.339084532 C28.5188463,-0.114544335 29.2311046,-0.112802396 29.6707328,0.34298189 C30.1097557,0.798138574 30.1097557,1.53609337 29.6707328,1.99125005 L29.6707328,1.99125005 L26.3696237,5.41367285 C25.6155653,6.19544238 24.3929951,6.19544238 23.6389367,5.41367285 L23.6389367,5.41367285 L20.323214,1.97609952 C19.892262,1.52931024 19.892262,0.804921699 20.323214,0.358132424 L20.323214,0.358132424 L20.4214061,0.267670333 C20.8543279,-0.0859072168 21.4837053,-0.0546992865 21.8818555,0.360173824 L21.8818555,0.360173824 L24.9468684,3.55392202 Z" id="path-1"></path>
    </defs>
    <g id="Transportation/Elevator/Generic" stroke="none" stroke-width="1" fill="none" fill-rule="evenodd">
        <mask id="mask-2" fill="white">
            <use xlink:href="#path-1"></use>
        </mask>
        <use id="Combined-Shape" fill="#606060" xlink:href="#path-1"></use>
    </g>
</svg>