<?xml version="1.0" encoding="UTF-8"?>
<svg width="40px" height="40px" viewBox="0 0 40 40" version="1.1" xmlns="http://www.w3.org/2000/svg" xmlns:xlink="http://www.w3.org/1999/xlink">
    <!-- Generator: Sketch 59.1 (86144) - https://sketch.com -->
    <title>Transportation/Escalator/Generic</title>
    <desc>Created with Sketch.</desc>
    <defs>
        <path d="M18.3404844,11 L18.5079248,11.0051966 C19.892612,11.0913713 21,12.2383873 21,13.6291611 L21,13.6291611 L21,14.695 L22.3628716,13.3761654 C23.9465928,11.845203 26.042617,11 28.253039,11 L32.3412044,11 C35.4666542,11 38,13.5078087 38,16.6017527 C38,19.6956968 35.4666542,22.2035055 32.3412044,22.2035055 L29.4320414,22.2035055 L17.6372332,33.6225164 C16.0561849,35.153986 13.9591943,36 11.7457035,36 L7.65879558,36 C4.5333458,36 2,33.4921913 2,30.3982473 C2,27.3043032 4.5333458,24.7964945 7.65879558,24.7964945 L10.5667011,24.7964945 L14,21.471 L14,13.6291611 L14.0052519,13.4634906 C14.0923443,12.0935247 15.251597,11 16.6583045,11 L16.6583045,11 L18.3404844,11 Z M32.3412044,14.2345018 L28.253039,14.2345018 C26.9883284,14.2345018 25.7936293,14.6824123 24.8503151,15.5054695 L24.6520901,15.6875544 L11.9024279,28.0309964 L7.65879558,28.0309964 C6.34184204,28.0309964 5.27253039,29.0895289 5.27253039,30.3982473 C5.27253039,31.6524357 6.25458918,32.6768528 7.49552563,32.7600435 L7.65879558,32.7654982 L11.7457035,32.7654982 C13.0123544,32.7654982 14.2071105,32.3175586 15.1490961,31.4942392 L15.3470153,31.3120944 L28.0963146,18.9690036 L32.3412044,18.9690036 C33.658158,18.9690036 34.7274696,17.9104711 34.7274696,16.6017527 C34.7274696,15.2930344 33.658158,14.2345018 32.3412044,14.2345018 Z M17.5011667,2 L17.693214,2.00517451 C19.5369715,2.10478611 21,3.63010556 21,5.49883333 L21,5.49883333 L20.9948255,5.69067019 C20.8952139,7.53261074 19.3698944,9 17.5011667,9 L17.5011667,9 L17.3090028,8.99481036 C15.4641187,8.89491056 14,7.36530556 14,5.49883333 C14,3.56566667 15.5668333,2 17.5011667,2 L17.5011667,2 Z" id="path-1"></path>
    </defs>
    <g id="Transportation/Escalator/Generic" stroke="none" stroke-width="1" fill="none" fill-rule="evenodd">
        <mask id="mask-2" fill="white">
            <use xlink:href="#path-1"></use>
        </mask>
        <use id="EscalatorDown" fill="#606060" xlink:href="#path-1"></use>
    </g>
</svg>