<?xml version="1.0" encoding="UTF-8"?>
<svg width="40px" height="40px" viewBox="0 0 40 40" version="1.1" xmlns="http://www.w3.org/2000/svg" xmlns:xlink="http://www.w3.org/1999/xlink">
    <!-- Generator: Sketch 59.1 (86144) - https://sketch.com -->
    <title>Transportation/Stairs/Multi</title>
    <desc>Created with Sketch.</desc>
    <defs>
        <path d="M25.5105635,6.5 L25.5105635,11.4174387 L25.5105635,11.4174387 L21.3227809,11.4174387 C20.4943538,11.4174387 19.8227809,12.0890115 19.8227809,12.9174387 L19.8227809,17.8358162 L19.8227809,17.8358162 L15.6349984,17.8358162 C14.8065713,17.8358162 14.1349984,18.5073891 14.1349984,19.3358162 L14.1349984,24.2692163 L14.1349984,24.2692163 L9.94721582,24.2692163 C9.11878869,24.2692163 8.44721582,24.9407892 8.44721582,25.7692163 L8.44721582,30.686655 L8.44721582,30.686655 L4.5,30.686655 C3.67157288,30.686655 3,31.3582279 3,32.186655 L3,33.5 C3,34.3284271 3.67157288,35 4.5,35 L10.7488698,35 C11.5772969,35 12.2488698,34.3284271 12.2488698,33.5 L12.2488698,28.5816224 L12.2488698,28.5816224 L16.435704,28.5816224 C17.2641312,28.5816224 17.935704,27.9100496 17.935704,27.0816224 L17.935704,22.1491612 L17.935704,22.1491612 L22.1244349,22.1491612 C22.952862,22.1491612 23.6244349,21.4775884 23.6244349,20.6491612 L23.6244349,15.7307837 L23.6244349,15.7307837 L27.8122174,15.7307837 C28.6406446,15.7307837 29.3122174,15.0592108 29.3122174,14.2307837 L29.3122174,9.31334502 L29.3122174,9.31334502 L33.5,9.31334502 C34.3284271,9.31334502 35,8.64177214 35,7.81334502 L35,6.5 C35,5.67157288 34.3284271,5 33.5,5 L27.0105635,5 C26.1821364,5 25.5105635,5.67157288 25.5105635,6.5 Z" id="path-1"></path>
    </defs>
    <g id="Transportation/Stairs/Multi" stroke="none" stroke-width="1" fill="none" fill-rule="evenodd">
        <mask id="mask-2" fill="white">
            <use xlink:href="#path-1"></use>
        </mask>
        <use id="Stairs" fill="#606060" xlink:href="#path-1"></use>
    </g>
</svg>